<svg width="60" height="60" viewBox="0 0 60 60" fill="none" xmlns="http://www.w3.org/2000/svg">
<circle cx="30" cy="30" r="29" stroke="white" stroke-width="2"/>
<path fill-rule="evenodd" clip-rule="evenodd" d="M17.5455 28.6824C17.7179 28.5095 17.9228 28.3723 18.1484 28.2787C18.374 28.1851 18.6158 28.1369 18.86 28.1369C19.1042 28.1369 19.3461 28.1851 19.5716 28.2787C19.7972 28.3723 20.0021 28.5095 20.1746 28.6824L30.0002 38.5118L39.8259 28.6824C40.1746 28.3337 40.6474 28.1379 41.1405 28.1379C41.6335 28.1379 42.1064 28.3337 42.455 28.6824C42.8037 29.031 42.9995 29.5039 42.9995 29.9969C42.9995 30.49 42.8037 30.9628 42.455 31.3115L31.3148 42.4517C31.1423 42.6246 30.9374 42.7618 30.7119 42.8554C30.4863 42.949 30.2445 42.9972 30.0002 42.9972C29.756 42.9972 29.5142 42.949 29.2886 42.8554C29.0631 42.7618 28.8582 42.6246 28.6857 42.4517L17.5455 31.3115C17.3726 31.139 17.2354 30.9341 17.1418 30.7085C17.0482 30.483 17 30.2411 17 29.9969C17 29.7527 17.0482 29.5109 17.1418 29.2853C17.2354 29.0597 17.3726 28.8548 17.5455 28.6824Z" fill="white"/>
<path fill-rule="evenodd" clip-rule="evenodd" d="M30.0003 17C30.4927 17 30.9649 17.1956 31.3131 17.5438C31.6613 17.892 31.857 18.3643 31.857 18.8567V37.4237C31.857 37.9162 31.6613 38.3884 31.3131 38.7366C30.9649 39.0848 30.4927 39.2804 30.0003 39.2804C29.5078 39.2804 29.0356 39.0848 28.6874 38.7366C28.3392 38.3884 28.1436 37.9162 28.1436 37.4237V18.8567C28.1436 18.3643 28.3392 17.892 28.6874 17.5438C29.0356 17.1956 29.5078 17 30.0003 17Z" fill="white"/>
</svg>
