<svg width="40" height="40" viewBox="0 0 40 40" fill="none" xmlns="http://www.w3.org/2000/svg">
<circle cx="20" cy="20" r="19" stroke="white" stroke-width="2"/>
<path d="M10.0037 14.855L20 19.8525L29.9963 14.855C29.9593 14.2181 29.6802 13.6194 29.2161 13.1815C28.752 12.7437 28.1381 12.4999 27.5 12.5H12.5C11.862 12.4999 11.2481 12.7437 10.784 13.1815C10.3199 13.6194 10.0407 14.2181 10.0037 14.855Z" fill="white"/>
<path d="M30.0001 17.647L20 22.647L10 17.647V24.9995C10 25.6625 10.2634 26.2984 10.7322 26.7673C11.2011 27.2361 11.837 27.4995 12.5 27.4995H27.5C28.1631 27.4995 28.799 27.2361 29.2678 26.7673C29.7367 26.2984 30.0001 25.6625 30.0001 24.9995V17.647Z" fill="white"/>
</svg>
