<svg width="59" height="70" viewBox="0 0 59 70" fill="none" xmlns="http://www.w3.org/2000/svg">
<path d="M0.287522 66.9021C-0.0888646 67.536 -0.0962474 68.3231 0.268518 68.9637C0.633147 69.6044 1.3136 70 2.05078 70H47.0249C47.762 70 48.4425 69.6044 48.8071 68.9637C49.1717 68.3231 49.1645 67.536 48.7881 66.9021C48.7881 66.9021 43.6851 59.8563 41.0203 56.2026H8.05534C5.39069 59.8562 0.287522 66.9021 0.287522 66.9021Z" fill="white"/>
<path d="M5.61588 24.03C3.38736 25.8484 2.04807 28.5865 2.04807 31.5906V47.1365C2.04807 48.269 2.96627 49.1872 4.09885 49.1872H9.63282V52.101H39.4431V48.5895H43.7753V52.8216C43.7753 53.9542 44.6935 54.8724 45.8261 54.8724H50.859C51.9916 54.8724 52.9098 53.9542 52.9098 52.8216C52.9098 51.6891 51.9916 50.7709 50.859 50.7709H47.8769V46.5387C47.8769 45.4062 46.9587 44.488 45.8261 44.488H39.4431V41.8917C39.4431 40.7591 38.5249 39.8409 37.3923 39.8409H11.6835C10.5509 39.8409 9.63268 40.7591 9.63268 41.8917V45.0858H6.14963V31.5906C6.14963 30.4823 6.46354 29.4363 7.02422 28.5501C6.50113 27.6687 6.1082 26.7104 5.86881 25.7074C5.73551 25.1487 5.65375 24.588 5.61588 24.03Z" fill="white"/>
<path d="M36.9067 8.43665L13.5951 17.4299C10.6585 18.5629 8.99504 21.7257 9.72552 24.7873C10.4069 27.6428 12.986 29.6364 15.871 29.6364C16.0793 29.6364 41.361 27.1029 41.361 27.1029L36.9067 8.43665Z" fill="white"/>
<path d="M52.3503 1.57469C52.2099 0.986524 51.8173 0.490235 51.2769 0.218575C50.7369 -0.0529491 50.1042 -0.0724999 49.5483 0.165528C49.5483 0.165528 46.191 1.60326 41.5746 3.58254C40.6572 3.97574 40.1562 4.97256 40.3878 5.9434L45.5927 27.7557C45.8142 28.6837 46.6435 29.3305 47.5864 29.3305C47.6298 29.3305 56.3751 28.7746 56.3751 28.7746C56.9785 28.7361 57.5343 28.4331 57.8935 27.9467C58.2528 27.4603 58.3792 26.8402 58.2388 26.252L52.3503 1.57469Z" fill="white"/>
</svg>
