<svg width="40" height="40" viewBox="0 0 40 40" fill="none" xmlns="http://www.w3.org/2000/svg">
<circle cx="20" cy="20" r="19" stroke="white" stroke-width="2"/>
<path d="M19.9973 16.4429C18.0387 16.4429 16.4402 18.0413 16.4402 20C16.4402 21.9587 18.0387 23.5571 19.9973 23.5571C21.956 23.5571 23.5544 21.9587 23.5544 20C23.5544 18.0413 21.956 16.4429 19.9973 16.4429ZM30.6659 20C30.6659 18.527 30.6792 17.0673 30.5965 15.597C30.5138 13.8892 30.1242 12.3735 28.8753 11.1247C27.6238 9.87315 26.1108 9.48622 24.403 9.4035C22.93 9.32078 21.4703 9.33412 20 9.33412C18.527 9.33412 17.0673 9.32078 15.597 9.4035C13.8892 9.48622 12.3735 9.87582 11.1246 11.1247C9.87314 12.3762 9.48621 13.8892 9.40349 15.597C9.32076 17.07 9.33411 18.5297 9.33411 20C9.33411 21.4703 9.32076 22.9326 9.40349 24.403C9.48621 26.1108 9.87581 27.6265 11.1246 28.8753C12.3762 30.1268 13.8892 30.5138 15.597 30.5965C17.07 30.6792 18.5297 30.6659 20 30.6659C21.473 30.6659 22.9326 30.6792 24.403 30.5965C26.1108 30.5138 27.6265 30.1242 28.8753 28.8753C30.1268 27.6238 30.5138 26.1108 30.5965 24.403C30.6819 22.9326 30.6659 21.473 30.6659 20ZM19.9973 25.473C16.9686 25.473 14.5243 23.0287 14.5243 20C14.5243 16.9713 16.9686 14.527 19.9973 14.527C23.026 14.527 25.4703 16.9713 25.4703 20C25.4703 23.0287 23.026 25.473 19.9973 25.473ZM25.6945 15.581C24.9873 15.581 24.4163 15.01 24.4163 14.3028C24.4163 13.5957 24.9873 13.0246 25.6945 13.0246C26.4016 13.0246 26.9727 13.5957 26.9727 14.3028C26.9729 14.4707 26.94 14.637 26.8758 14.7922C26.8117 14.9474 26.7175 15.0884 26.5988 15.2071C26.4801 15.3258 26.3391 15.42 26.1839 15.4841C26.0287 15.5483 25.8624 15.5812 25.6945 15.581Z" fill="white"/>
</svg>
