<svg width="40" height="40" viewBox="0 0 40 40" fill="none" xmlns="http://www.w3.org/2000/svg">
<path d="M20.0391 10C15.8754 10 12.5 13.3753 12.5 17.5391C12.5 18.9315 12.7725 20.3697 13.5547 21.4063L20.0391 30L26.5234 21.4063C27.2339 20.4648 27.5781 18.8003 27.5781 17.5391C27.5781 13.3753 24.2028 10 20.0391 10ZM20.0391 14.3665C21.791 14.3665 23.2117 15.7871 23.2117 17.5391C23.2117 19.291 21.791 20.7117 20.0391 20.7117C18.2871 20.7117 16.8665 19.291 16.8665 17.5391C16.8665 15.7871 18.2871 14.3665 20.0391 14.3665Z" fill="white"/>
<circle cx="20" cy="20" r="19" stroke="white" stroke-width="2"/>
</svg>
