<svg width="40" height="40" viewBox="0 0 40 40" fill="none" xmlns="http://www.w3.org/2000/svg">
<circle cx="20" cy="20" r="19" stroke="white" stroke-width="2"/>
<path d="M18.126 22.7907C19.4882 24.0606 21.1363 25.0411 22.9548 25.6632L25.4148 23.8641C25.4878 23.818 25.5742 23.7932 25.6628 23.7932C25.7513 23.7932 25.8378 23.818 25.9108 23.8641L30.4785 26.5688C30.6519 26.6646 30.7987 26.7962 30.9073 26.9531C31.0159 27.11 31.0833 27.2879 31.1041 27.4729C31.125 27.6579 31.0988 27.8448 31.0276 28.0188C30.9564 28.1929 30.8421 28.3493 30.6938 28.4758L28.5535 30.4189C28.247 30.6972 27.8703 30.9015 27.457 31.0134C27.0436 31.1254 26.6066 31.1416 26.1848 31.0606C21.9774 30.2619 18.0994 28.3916 14.9939 25.6632C11.9573 22.9077 9.85598 19.4016 8.94486 15.5702C8.85486 15.1886 8.87364 14.7921 8.9994 14.4191C9.12516 14.0461 9.35362 13.7093 9.66265 13.4413L11.8813 11.4743C12.0186 11.3446 12.186 11.2452 12.371 11.1834C12.5561 11.1216 12.7539 11.0991 12.9497 11.1176C13.1456 11.136 13.3343 11.195 13.5019 11.29C13.6694 11.385 13.8114 11.5136 13.9172 11.6662L16.958 15.8101C17.0104 15.8752 17.0387 15.954 17.0387 16.035C17.0387 16.116 17.0104 16.1948 16.958 16.2599L14.9547 18.4728C15.65 20.1105 16.7333 21.5855 18.126 22.7907Z" fill="white"/>
</svg>
