<svg width="40" height="40" viewBox="0 0 40 40" fill="none" xmlns="http://www.w3.org/2000/svg">
<path fill-rule="evenodd" clip-rule="evenodd" d="M20 36.3636C22.1489 36.3636 24.2768 35.9404 26.2621 35.118C28.2474 34.2957 30.0513 33.0903 31.5708 31.5708C33.0903 30.0513 34.2957 28.2474 35.118 26.2621C35.9404 24.2768 36.3636 22.1489 36.3636 20C36.3636 17.8511 35.9404 15.7232 35.118 13.7379C34.2957 11.7526 33.0903 9.94867 31.5708 8.42916C30.0513 6.90966 28.2474 5.70432 26.2621 4.88197C24.2768 4.05962 22.1489 3.63636 20 3.63636C15.6601 3.63636 11.4979 5.36038 8.42916 8.42916C5.36039 11.4979 3.63636 15.6601 3.63636 20C3.63636 24.3399 5.36039 28.5021 8.42916 31.5708C11.4979 34.6396 15.6601 36.3636 20 36.3636ZM20 40C31.0455 40 40 31.0455 40 20C40 8.95455 31.0455 0 20 0C8.95455 0 0 8.95455 0 20C0 31.0455 8.95455 40 20 40Z" fill="#E66C28"/>
<path d="M27.2727 19.9999L16.3636 27.8727V12.1272L27.2727 19.9999Z" fill="#E66C28"/>
</svg>
