<svg width="40" height="40" viewBox="0 0 40 40" fill="none" xmlns="http://www.w3.org/2000/svg">
<path d="M16.3281 12.1484C19.5312 12.2266 22.3177 12.4935 24.6875 12.9492C27.0573 13.4049 29.2708 14.1536 31.3281 15.1953C31.7188 15.3776 32.0573 15.5794 32.3438 15.8008C32.6302 16.0221 32.8255 16.263 32.9297 16.5234C33.0339 16.7839 33.0599 17.1289 33.0078 17.5586C32.9557 17.9883 32.8255 18.2682 32.6172 18.3984C32.487 18.5026 32.3242 18.5872 32.1289 18.6523C31.9336 18.7174 31.7383 18.7695 31.543 18.8086C31.3477 18.8477 31.1523 18.8542 30.957 18.8281C30.7617 18.8021 30.5859 18.763 30.4297 18.7109C26.3672 16.6016 21.6797 15.651 16.3672 15.8594C14.987 15.9115 13.0208 16.1849 10.4688 16.6797C9.01042 16.9661 8.125 16.5625 7.8125 15.4688C7.68229 15.0521 7.6888 14.6745 7.83203 14.3359C7.97526 13.9974 8.19661 13.7435 8.49609 13.5742C8.79557 13.4049 9.15365 13.2812 9.57031 13.2031C10.0391 13.099 12.2917 12.7474 16.3281 12.1484ZM17.2266 18.0859C19.4922 18.2422 21.6276 18.5742 23.6328 19.082C25.638 19.5898 27.526 20.3516 29.2969 21.3672C29.401 21.4193 29.5182 21.4974 29.6484 21.6016C29.7786 21.7057 29.8958 21.8229 30 21.9531C30.1042 22.0833 30.2018 22.2201 30.293 22.3633C30.3841 22.5065 30.4557 22.6497 30.5078 22.793C30.5599 22.9362 30.5859 23.0729 30.5859 23.2031C30.638 23.776 30.3906 24.1471 29.8438 24.3164C29.2969 24.4857 28.6719 24.388 27.9688 24.0234C23.3854 21.6016 18.3073 20.8594 12.7344 21.7969C12.6562 21.7969 12.3958 21.8685 11.9531 22.0117C11.5104 22.1549 11.1849 22.2005 10.9766 22.1484C10.8984 22.1224 10.8138 22.0964 10.7227 22.0703C10.6315 22.0443 10.5469 22.0117 10.4688 21.9727L10.2344 21.8555L10 21.7188L9.74609 21.5625L9.51172 21.4258L9.27734 21.2891L9.02344 21.1719C9.10156 21.0417 9.21875 20.8138 9.375 20.4883C9.53125 20.1628 9.68099 19.9023 9.82422 19.707C9.96745 19.5117 10.1172 19.401 10.2734 19.375C10.9505 19.1927 11.6536 19.0365 12.3828 18.9062C13.112 18.776 14.0039 18.6263 15.0586 18.457C16.1133 18.2878 16.8359 18.1641 17.2266 18.0859ZM16.4062 24.0625C20.8333 24.1406 24.4531 24.974 27.2656 26.5625C27.526 26.6927 27.7279 26.8164 27.8711 26.9336C28.0143 27.0508 28.1641 27.194 28.3203 27.3633C28.4766 27.5326 28.5417 27.7214 28.5156 27.9297C28.4896 28.138 28.3854 28.3464 28.2031 28.5547C28.0729 28.763 27.7604 28.8802 27.2656 28.9062C26.7708 28.9323 26.3932 28.8672 26.1328 28.7109C22.7214 26.888 18.5938 26.276 13.75 26.875C13.5677 26.901 13.3398 26.9466 13.0664 27.0117C12.793 27.0768 12.5391 27.1354 12.3047 27.1875C12.0703 27.2396 11.849 27.2526 11.6406 27.2266C11.4323 27.2005 11.2305 27.1484 11.0352 27.0703C10.8398 26.9922 10.6055 26.8815 10.332 26.7383C10.0586 26.5951 9.86979 26.4974 9.76562 26.4453C9.81771 26.3411 9.89583 26.224 10 26.0938C10.1042 25.9635 10.1888 25.8398 10.2539 25.7227C10.319 25.6055 10.3971 25.4883 10.4883 25.3711C10.5794 25.2539 10.6771 25.1562 10.7812 25.0781C10.8854 25 10.9766 24.9479 11.0547 24.9219C11.6797 24.7917 12.3242 24.668 12.9883 24.5508C13.6523 24.4336 14.362 24.3294 15.1172 24.2383C15.8724 24.1471 16.3021 24.0885 16.4062 24.0625ZM40 20C40 25.5208 38.0469 30.2344 34.1406 34.1406C30.2344 38.0469 25.5208 40 20 40C14.4792 40 9.76562 38.0469 5.85938 34.1406C1.95312 30.2344 0 25.5208 0 20C0 14.4792 1.95312 9.76562 5.85938 5.85938C6.51042 5.20833 7.18099 4.60938 7.87109 4.0625C8.5612 3.51562 9.27734 3.02734 10.0195 2.59766C10.7617 2.16797 11.5299 1.79036 12.3242 1.46484C13.1185 1.13932 13.9258 0.865885 14.7461 0.644531C15.5664 0.423177 16.4193 0.260417 17.3047 0.15625C18.1901 0.0520833 19.0885 0 20 0C25.5208 0 30.2344 1.95312 34.1406 5.85938C38.0469 9.76562 40 14.4792 40 20ZM37.5 20C37.5 15.1562 35.7943 11.0286 32.3828 7.61719C28.9714 4.20573 24.8438 2.5 20 2.5C15.1562 2.5 11.0286 4.20573 7.61719 7.61719C4.20573 11.0286 2.5 15.1562 2.5 20C2.5 24.8438 4.20573 28.9844 7.61719 32.4219C11.0286 35.8594 15.1562 37.5781 20 37.5781C24.8438 37.5781 28.9714 35.8594 32.3828 32.4219C35.7943 28.9844 37.5 24.8438 37.5 20Z" fill="white"/>
</svg>
