<svg width="40" height="40" viewBox="0 0 40 40" fill="none" xmlns="http://www.w3.org/2000/svg">
<path d="M30.1666 13.9729C29.3999 14.3063 28.577 14.5354 27.7124 14.6354C28.5958 14.1146 29.2708 13.2896 29.5916 12.3084C28.7499 12.7989 27.8314 13.144 26.8749 13.3292C26.4726 12.9075 25.9886 12.5721 25.4524 12.3436C24.9162 12.1151 24.339 11.9982 23.7562 12C21.3958 12 19.4833 13.8854 19.4833 16.2083C19.4833 16.5375 19.5208 16.8583 19.5937 17.1667C17.9006 17.0863 16.2429 16.6539 14.7263 15.897C13.2097 15.1401 11.8675 14.0754 10.7854 12.7709C10.4053 13.4106 10.2052 14.1413 10.2062 14.8854C10.2062 16.3438 10.9625 17.6354 12.1083 18.3875C11.4301 18.3662 10.7664 18.1857 10.1708 17.8604V17.9125C10.1772 18.8906 10.5225 19.8361 11.1477 20.5882C11.773 21.3404 12.6396 21.8525 13.6 22.0375C12.9695 22.2042 12.3097 22.2284 11.6687 22.1083C11.9482 22.9497 12.4826 23.6832 13.1979 24.207C13.9132 24.7308 14.7739 25.0189 15.6604 25.0312C14.1395 26.2032 12.2721 26.8364 10.3521 26.8312C10.0083 26.8312 9.66873 26.8104 9.33331 26.7729C11.2926 28.0131 13.5645 28.6699 15.8833 28.6667C23.7458 28.6667 28.0437 22.2542 28.0437 16.6917L28.0291 16.1458C28.8672 15.5568 29.5914 14.8206 30.1666 13.9729Z" fill="white"/>
<circle cx="20" cy="20" r="19" stroke="white" stroke-width="2"/>
</svg>
