<svg width="79" height="55" viewBox="0 0 79 55" fill="none" xmlns="http://www.w3.org/2000/svg">
<path d="M23.5714 27.5C31.1708 27.5 37.3214 21.3493 37.3214 13.75C37.3214 6.15067 31.1708 0 23.5714 0C15.9721 0 9.82143 6.15067 9.82143 13.75C9.82143 21.3493 15.9721 27.5 23.5714 27.5ZM33 31.4286H31.981C29.4275 32.6562 26.5915 33.3929 23.5714 33.3929C20.5513 33.3929 17.7277 32.6562 15.1618 31.4286H14.1429C6.33482 31.4286 0 37.7634 0 45.5714V49.1071C0 52.3605 2.63951 55 5.89286 55H41.25C44.5033 55 47.1429 52.3605 47.1429 49.1071V45.5714C47.1429 37.7634 40.808 31.4286 33 31.4286ZM58.9286 27.5C65.4353 27.5 70.7143 22.221 70.7143 15.7143C70.7143 9.20759 65.4353 3.92857 58.9286 3.92857C52.4219 3.92857 47.1429 9.20759 47.1429 15.7143C47.1429 22.221 52.4219 27.5 58.9286 27.5ZM64.8214 31.4286H64.3549C62.6484 32.0179 60.8437 32.4107 58.9286 32.4107C57.0134 32.4107 55.2087 32.0179 53.5022 31.4286H53.0357C50.5312 31.4286 48.2232 32.1529 46.1975 33.3192C49.1931 36.548 51.0714 40.8326 51.0714 45.5714V50.2857C51.0714 50.5558 51.01 50.8136 50.9978 51.0714H72.6786C75.9319 51.0714 78.5714 48.4319 78.5714 45.1786C78.5714 37.5792 72.4208 31.4286 64.8214 31.4286Z" fill="white"/>
</svg>
