<svg width="69" height="55" viewBox="0 0 69 55" fill="none" xmlns="http://www.w3.org/2000/svg">
<path d="M0 55H34.375V54.1063C39.6 55.4813 45.2719 55.3094 50.7375 53.2812C64.9688 48.0563 72.2906 32.2437 67.0656 18.0125C62.15 4.64062 47.8844 -2.6125 34.375 0.89375V0H0V55ZM30.9375 3.4375V51.5625H3.4375V3.4375H30.9375ZM49.6719 31.6938C48.5534 33.9215 46.5992 35.6163 44.2357 36.4084C41.8722 37.2006 39.2913 37.0257 37.0562 35.9219C35.9906 35.4062 35.0969 34.7188 34.375 33.8937V21.0719C37.125 18.1156 41.6281 17.1875 45.4438 19.0781C50.0844 21.4156 51.975 27.0531 49.6719 31.6938ZM40.2188 28.875C40.975 29.425 42.0406 29.2875 42.625 28.5312C43.175 27.775 43.0375 26.7094 42.2812 26.125C41.525 25.5406 40.4594 25.7125 39.875 26.4688C39.325 27.1906 39.4625 28.2906 40.2188 28.875ZM50.5656 41.4906C46.5438 44.1719 41.7656 44.8937 37.4 43.8625C36.4719 43.6562 35.8875 42.6937 36.1281 41.7656C36.3688 40.8375 37.2969 40.2875 38.2594 40.5281L38.8438 40.6656C42.1437 41.25 45.65 40.6312 48.675 38.6375C50.2906 37.5375 51.6313 36.1625 52.5938 34.5813C53.1094 33.7906 54.1406 33.55 54.9656 34.0312C55.7562 34.5469 55.9969 35.6125 55.5156 36.4031C54.2781 38.3625 52.6281 40.1156 50.5656 41.4906ZM54.175 46.8875C49.2898 50.163 43.3446 51.465 37.5375 50.5313C37.314 50.4861 37.1017 50.3974 36.9125 50.2702C36.7233 50.143 36.5611 49.9797 36.435 49.7898C36.3089 49.5999 36.2215 49.387 36.1777 49.1633C36.1339 48.9395 36.1345 48.7094 36.1797 48.4859C36.2248 48.2625 36.3135 48.0501 36.4408 47.8609C36.568 47.6718 36.7312 47.5095 36.9211 47.3834C37.1111 47.2573 37.324 47.1699 37.5477 47.1261C37.7714 47.0823 38.0015 47.083 38.225 47.1281L38.9813 47.2656C43.4844 47.7812 48.1937 46.7844 52.2844 44.0344C54.725 42.4188 56.65 40.3563 58.1281 38.0531C58.6094 37.2281 59.675 36.9875 60.4656 37.5031C61.2906 37.9844 61.5312 39.05 61.0156 39.875C59.3312 42.5906 57.0281 44.9969 54.175 46.8875Z" fill="white"/>
</svg>
