<svg width="57" height="70" viewBox="0 0 57 70" fill="none" xmlns="http://www.w3.org/2000/svg">
<path fill-rule="evenodd" clip-rule="evenodd" d="M56.0044 7.00055V52.5041C56.0032 54.733 55.2929 56.9036 53.9762 58.702C52.6595 60.5003 50.8048 61.8331 48.6804 62.5074C46.556 63.1817 44.2722 63.1625 42.1594 62.4527C40.0466 61.7429 38.2144 60.3792 36.9281 58.559C35.6418 56.7389 34.9679 54.5566 35.0041 52.328C35.0403 50.0995 35.7847 47.9403 37.1295 46.1628C38.4743 44.3854 40.3498 43.082 42.4845 42.4412C44.6192 41.8004 46.9025 41.8554 49.0039 42.5984V14.0011H21.0017V59.5047C21.0005 61.7335 20.2902 63.9042 18.9735 65.7025C17.6568 67.5009 15.802 68.8336 13.6776 69.5079C11.5533 70.1822 9.26941 70.1631 7.15662 69.4533C5.04383 68.7434 3.21169 67.3798 1.92535 65.5596C0.639006 63.7394 -0.0348197 61.5571 0.00138628 59.3286C0.0375923 57.1001 0.781951 54.9408 2.12674 53.1634C3.47154 51.386 5.347 50.0825 7.48174 49.4417C9.61647 48.8009 11.8997 48.856 14.0011 49.5989V7.00055C14.0011 5.14389 14.7387 3.36327 16.0515 2.05041C17.3644 0.737556 19.145 0 21.0017 0H49.0039C50.8605 0 52.6411 0.737556 53.954 2.05041C55.2668 3.36327 56.0044 5.14389 56.0044 7.00055Z" fill="white"/>
</svg>
