<svg width="30" height="30" viewBox="0 0 30 30" fill="none" xmlns="http://www.w3.org/2000/svg">
<path d="M23.5378 4.18262L22.3763 5.34371C25.4348 7.46621 27.442 11.0025 27.442 14.999C27.442 18.9886 25.4419 22.5187 22.3931 24.6421L23.5547 25.8037C26.8898 23.3709 29.0625 19.4339 29.0625 14.999C29.0625 10.5571 26.8828 6.61402 23.5378 4.18262Z" fill="#E56C28"/>
<path d="M25.6195 14.9991C25.6195 11.5041 23.8027 8.42535 21.0628 6.65723L19.8844 7.83566C22.3439 9.27848 23.9986 11.9485 23.9986 14.9991C23.9986 18.0427 22.3523 20.708 19.9041 22.1522L21.0806 23.3302C23.8106 21.5602 25.6195 18.4871 25.6195 14.9991Z" fill="#E56C28"/>
<path d="M22.2473 14.9989C22.2473 12.4274 20.7567 10.1966 18.5939 9.12549L17.362 10.3592C19.2642 11.0431 20.6278 12.8647 20.6278 14.9989C20.6278 17.1256 19.275 18.942 17.3845 19.633L18.6145 20.863C20.7661 19.7877 22.2473 17.5639 22.2473 14.9989Z" fill="#E56C28"/>
<path d="M18.5156 15C18.5156 13.4105 17.1384 12.1228 15.4402 12.1228V1.58812C15.4402 1.22859 15.1284 0.9375 14.7441 0.9375C14.3606 0.9375 14.0489 1.22859 14.0489 1.58812V1.91484C13.5413 2.32687 5.82703 9.28734 5.82703 9.28734H2.59922C1.68141 9.28734 0.9375 9.9825 0.9375 10.8413V19.1573C0.9375 20.0166 1.68141 20.7117 2.59922 20.7117H5.8275V20.7127C5.8275 20.7127 10.342 24.1645 14.0494 28.0744V28.4109C14.0494 28.7705 14.3611 29.0625 14.7445 29.0625C15.1289 29.0625 15.4406 28.7705 15.4406 28.4109V17.8763C17.1389 17.8763 18.5156 16.5881 18.5156 15Z" fill="#E56C28"/>
</svg>
